<?xml version="1.0" encoding="utf-8"?>
<!-- Svg Vector Icons : http://www.onlinewebfonts.com/icon -->
<!DOCTYPE svg PUBLIC "-//W3C//DTD SVG 1.1//EN" "http://www.w3.org/Graphics/SVG/1.1/DTD/svg11.dtd">
<svg version="1.1" xmlns="http://www.w3.org/2000/svg" xmlns:xlink="http://www.w3.org/1999/xlink" x="0px" y="0px" viewBox="0 0 256 256" enable-background="new 0 0 256 256" xml:space="preserve">
<metadata> Svg Vector Icons : http://www.onlinewebfonts.com/icon </metadata>
<g><g><g><path fill="#000000" d="M20.5,40.1c-2.9,0.8-5.3,2.3-7.3,4.7c-3.4,3.9-3.1-1.3-3.1,76.5v70.3l1.5,2.9c0.8,1.6,2.3,3.7,3.4,4.6c3.7,3.1,3.4,3.1,31.9,3.1h25.6v7.1v7.1H128h55.7v-7.1v-7.1h25.6c28.4,0,28.2,0,31.8-3c1-0.9,2.5-2.8,3.2-4.1l1.4-2.6l0.1-70.7c0.1-78.9,0.4-73.1-3.3-77.3c-1-1.2-3.1-2.7-4.6-3.5l-2.7-1.3L129,39.6C45.9,39.5,22.1,39.6,20.5,40.1z M235.7,47.7c0.8,0.5,1.8,1.5,2.2,2.4c1,1.5,1,3,1,70.9c0,76.6,0.2,71.2-3,73.1c-1.5,1-3.2,1-107.8,1c-117.4,0-108.1,0.2-110-3c-1-1.5-1-3-1-70.9c0-74.3-0.1-70.7,2.3-72.8c0.5-0.5,1.6-1,2.3-1.3c0.8-0.2,48.9-0.4,107-0.3C229.7,46.8,234.5,46.8,235.7,47.7z M176.5,205.8l0.1,3.5H128H79.5v-3.2c0-1.8,0.1-3.4,0.3-3.6c0.1-0.2,21.9-0.3,48.4-0.2l48.1,0.1L176.5,205.8z"/><path fill="#000000" d="M69.4,62.1l-5.1,0.7v15.4v15.4h3.6h3.6V81.3V69l3.2-0.4c4.9-0.5,16,0.1,21.2,1.2c8.4,1.8,18.1,5.7,25.7,10.4l2.7,1.7v3.9v4h3.6h3.6v-4v-4l2.7-1.8c6.5-4.1,17.2-8.4,25.3-10.1c5.2-1.1,16.3-1.8,21.2-1.2l3.2,0.4v12.3v12.3h3.6h3.6V78.2c0-12-0.1-15.5-0.6-15.5c-0.3,0-2.9-0.3-5.6-0.7c-17.8-2.4-35.9,1.3-52.4,10.8l-4.6,2.7l-4.2-2.5c-7.9-4.7-17.5-8.3-27.1-10.4C89.9,61.4,76.6,61.1,69.4,62.1z"/><path fill="#000000" d="M168.8,105c-0.2,0.1-0.3,1.1-0.3,2.1v1.8h3.1h3.1v-2.1v-2.1h-2.8C170.4,104.6,168.9,104.8,168.8,105z"/><path fill="#000000" d="M38.1,116.8v11.2h8.8h8.8v-2.6v-2.6l-5.8-0.1l-5.9-0.1v-1.7v-1.7l5.4-0.1l5.3-0.1v-2.3v-2.4h-5.5h-5.5v-1.7v-1.7h5.9h5.9v-2.6v-2.6h-8.8h-8.8V116.8z"/><path fill="#000000" d="M73.8,116.8v11.2h8.3h8.3v-2.9v-2.9h-5.2H80v-8.3v-8.3h-3.1h-3.1V116.8z"/><path fill="#000000" d="M97.8,111.1c-2.1,1.1-3.1,2.1-4.1,4.2c-2,4.3-0.5,9.5,3.4,11.5c3.6,1.9,8.9,1.3,11.2-1.2c0.9-1,0.9-1-0.5-2.2c-1.7-1.3-2-1.4-3.3-0.5c-1.4,1.1-3.8,0.9-4.9-0.4c-0.6-0.6-1-1.2-1-1.4s2.6-0.3,5.7-0.3h5.7V119c0-3.4-2.4-7-5.4-8.1C102.6,110.1,99.5,110.2,97.8,111.1z M103.3,115.6c1.8,1.8,1.2,2.4-1.9,2.4c-2.2,0-2.9-0.1-2.9-0.7c0-1,1.8-2.6,2.9-2.6C101.9,114.6,102.7,115,103.3,115.6z"/><path fill="#000000" d="M116.8,110.9c-2.6,0.6-2.8,1-2.1,3.2c0.5,1.8,0.7,1.9,1.7,1.5c3-1.1,6.8-0.1,6.8,1.7c0,0.5-0.6,0.6-2.6,0.4c-4.9-0.5-7.9,1.5-7.9,5.4c0,3.1,1.5,4.6,4.9,4.9c2,0.1,3,0,4-0.6c1.1-0.7,1.3-0.7,1.8,0c0.4,0.6,1.2,0.7,3.1,0.6l2.6-0.1v-5.9c0-6.8-0.5-8.5-2.9-10C124.5,110.6,119.6,110.1,116.8,110.9z M123,122c0,1.1-0.3,1.6-1.3,2c-1.7,0.8-3.2,0-3.2-1.5c0-1.6,1-2.3,2.9-2.1C122.9,120.6,123,120.7,123,122z"/><path fill="#000000" d="M142.1,110.9c-0.5,0.3-1.3,1-1.8,1.5l-0.9,1v-1.3c0-1.3,0-1.3-3.1-1.3h-3.1v8.6v8.6l3-0.1l3-0.1l0.2-4.3c0.3-4.9,0.7-5.6,3.4-6.5l1.9-0.5v-3C144.7,110.1,144.2,109.7,142.1,110.9z"/><path fill="#000000" d="M155.4,111.5c-1.6,1.1-1.7,1.1-1.7,0.2s-0.3-1-3.1-1h-3.1l0.1,8.4l0.1,8.5l3,0.1l2.9,0.1v-5.4c0-4.9,0.1-5.5,1-6.3c0.8-0.7,1.2-0.8,2.3-0.4c1.3,0.4,1.3,0.5,1.5,6.1l0.2,5.7h2.9h2.9l0.1-6.3c0.1-5.1,0-6.6-0.7-8C162.4,110.3,158.6,109.4,155.4,111.5z"/><path fill="#000000" d="M186.8,111.5c-1.6,1.1-1.7,1.1-1.7,0.2s-0.3-1-3.1-1h-3.1l0.1,8.4l0.1,8.5h2.9h2.9l0.2-5.6c0.2-5.8,0.5-6.5,2.4-6.5s2.1,0.8,2.4,6.5l0.2,5.6h2.9h2.9l0.1-5.9c0.1-4.5,0-6.4-0.6-7.9C194,110.4,190.1,109.3,186.8,111.5z"/><path fill="#000000" d="M203.2,111.4c-2.4,1.6-3.4,3.4-3.7,6c-0.3,3.1,1.1,6.4,3.3,7.7c2.1,1.3,6,1.3,7.7,0c1.5-1.2,1.8-1.2,1.8,0c0,0.6-0.5,1.5-1.2,2.1c-0.9,1-1.6,1.2-3.6,1.2c-1.3,0-3.1-0.3-4-0.7l-1.7-0.7l-1,1.9l-1,1.9l1.8,0.8c1.3,0.6,3.1,0.8,6.7,0.8c5.2,0,6.3-0.4,8.4-3.3c0.9-1.2,1-2.1,1.1-9.8l0.1-8.5h-2.9c-2.3,0-2.9,0.1-2.9,0.7c0,0.9-0.1,0.9-2-0.2C208.1,110,205.2,110,203.2,111.4z M211.3,116c0.5,0.5,1,1.5,1,2.1c0,1.6-2,3.6-3.6,3.6c-1.4,0-3.6-1.9-3.6-3.1c0-1,0.9-2.7,1.6-3.2C207.8,114.8,210.3,115.1,211.3,116z"/><path fill="#000000" d="M168.9,119.4v8.6h2.9h2.9v-8.6v-8.6h-2.9h-2.9V119.4z"/><path fill="#000000" d="M59.3,115.4c-0.2,0.1-0.3,1.3-0.3,2.6v2.3h5.2h5.2v-2.6v-2.6h-4.9C61.9,115.1,59.5,115.2,59.3,115.4z"/><path fill="#000000" d="M64.2,148.4c0,11.4,0.1,12.8,0.8,12.8c0.4,0,3.4-0.3,6.7-0.7c7.2-0.9,14.3-0.4,21.9,1.5c11.2,2.8,20,7.5,29.5,15.9l4.4,3.9l3.1-2.8c7.7-6.8,16.1-12.1,23.8-14.9l2.9-1l-1-3.3c-0.6-1.8-1.2-3.3-1.5-3.3c-0.2,0-2.7,1-5.5,2c-5.3,2.2-9.7,4.6-14.8,8.1l-3.1,2.2l-0.2-7.8l-0.2-7.7l-3.4-0.1l-3.5-0.1v7.9c0,8.9,0.2,8.6-3.9,5.5c-8.2-6.1-19.9-10.8-31.3-12.7c-2.5-0.4-7.4-0.8-11-0.8h-6.6v-8.8v-8.8h-3.6h-3.6V148.4z"/><path fill="#000000" d="M157.7,138.1c0.2,0.5,3.5,10.8,7.3,22.8c3.9,12.1,7.1,22.3,7.3,22.6c0.2,0.4,2.2-2,5.3-6.3c2.7-3.8,5.1-6.9,5.2-6.9c0.1,0,2.5,2.5,5.2,5.5l4.9,5.5l1.8-1.4c1-0.8,2.1-1.8,2.6-2.3c1-1.1,1.2-0.8-5.8-8.5l-3.5-3.8l7.6-4.5c4.2-2.4,7.4-4.6,7.2-4.8c-0.2-0.2-39.7-16.5-44.8-18.4C157.5,137.4,157.4,137.5,157.7,138.1z M178.3,153c5.3,2.3,9.7,4.3,9.7,4.4c0,0.1-1.7,1.2-3.7,2.4c-3.2,1.8-4,2.6-6.6,6.1l-2.9,4l-3.4-10.2c-3.5-10.4-3.6-10.8-3.1-10.8C168.5,148.9,173,150.7,178.3,153z"/></g></g></g>
</svg>