<?xml version="1.0" encoding="utf-8"?>
<!-- Svg Vector Icons : http://www.onlinewebfonts.com/icon -->
<!DOCTYPE svg PUBLIC "-//W3C//DTD SVG 1.1//EN" "http://www.w3.org/Graphics/SVG/1.1/DTD/svg11.dtd">
<svg version="1.1" xmlns="http://www.w3.org/2000/svg" xmlns:xlink="http://www.w3.org/1999/xlink" x="0px" y="0px" viewBox="0 0 256 256" enable-background="new 0 0 256 256" xml:space="preserve">
<metadata> Svg Vector Icons : http://www.onlinewebfonts.com/icon </metadata>
<g><g><g><path fill="#000000" d="M92.5,10.3c-30,4.2-53.7,23.9-63.1,52.3c-4.7,14.5-4.9,31.7-0.2,46.4c6.1,19.5,20.3,36,38.6,45.2c5.5,2.8,12.1,5.1,18.9,6.6c4.7,1,7,1.2,15.1,1.2c12.3-0.1,19.4-1.4,30.1-6l4.5-1.9l3.6,3.9c2,2.2,3.6,4.2,3.6,4.5c0,0.3-1,1.5-2.1,2.7c-1.2,1.1-2.1,2.6-2.1,3.1c0,1,22.9,30,49.2,62.3c12.4,15.3,12.5,15.4,18.9,15.4c3.5,0,3.6-0.1,9.4-3.9c6.8-4.5,11.2-8.3,12.5-10.7c1.2-2.3,1-6.2-0.5-9.1c-0.7-1.3-14.1-19.6-29.9-40.5c-28.4-37.7-28.7-38.1-30.6-38.1c-1.4,0-2.3,0.5-4.1,2.1l-2.2,2.1l-2.8-3.9c-1.5-2.1-2.8-4-2.8-4.2c0-0.2,1.5-2.1,3.3-4.2c19.5-22.6,23.7-55.2,10.8-82.3c-7.1-15-19.7-27.8-34.7-35.3c-5.6-2.8-12.4-5.2-18.8-6.5C111.3,10.1,98,9.6,92.5,10.3z M116,38.9c16.8,5.4,28.2,17.1,33.4,34.1c1.3,4.3,1.4,5.7,1.5,12.8c0,6.7-0.2,8.7-1.2,12.5c-3.9,14.5-13.7,26.1-27.5,32.5c-7.7,3.6-16,5-25.1,4.2c-5.9-0.6-10.1-1.7-15.6-4.2c-14.8-6.8-24.6-19.3-28-35.5c-5-23.9,9.5-48.4,33.2-56.2c5.8-1.9,7.8-2.1,16.5-2C110.5,37.4,112,37.5,116,38.9z"/></g></g></g>
</svg>