<?xml version="1.0" encoding="utf-8"?>
<!-- Svg Vector Icons : http://www.onlinewebfonts.com/icon -->
<!DOCTYPE svg PUBLIC "-//W3C//DTD SVG 1.1//EN" "http://www.w3.org/Graphics/SVG/1.1/DTD/svg11.dtd">
<svg version="1.1" xmlns="http://www.w3.org/2000/svg" xmlns:xlink="http://www.w3.org/1999/xlink" x="0px" y="0px" viewBox="0 0 256 256" enable-background="new 0 0 256 256" xml:space="preserve">
<metadata> Svg Vector Icons : http://www.onlinewebfonts.com/icon </metadata>
<g><g><g><path fill="#000000" d="M12,12c-2.1,2.1-2.6,4.6-1.3,7.2c0.4,0.8,24.8,25.6,54.4,55.1l53.6,53.7l-53.6,53.7c-29.6,29.6-54,54.4-54.4,55.2c-2.7,5.3,3.1,11.2,8.5,8.5c0.8-0.4,25.6-24.8,55.2-54.4l53.7-53.6l53.7,53.6c29.5,29.6,54.3,54,55.1,54.4c5.3,2.7,11.2-3.1,8.5-8.5c-0.4-0.8-24.8-25.6-54.4-55.2L137.3,128l53.6-53.7c29.6-29.5,54-54.3,54.4-55.1c2.7-5.3-3.1-11.2-8.5-8.5c-0.8,0.4-25.6,24.8-55.1,54.4L128,118.7L74.3,65.1C44.8,35.5,20,11.1,19.2,10.7C16.6,9.4,14.1,9.9,12,12z"/></g></g></g>
</svg>