<?xml version="1.0" encoding="utf-8"?>
<!-- Svg Vector Icons : http://www.onlinewebfonts.com/icon -->
<!DOCTYPE svg PUBLIC "-//W3C//DTD SVG 1.1//EN" "http://www.w3.org/Graphics/SVG/1.1/DTD/svg11.dtd">
<svg version="1.1" xmlns="http://www.w3.org/2000/svg" xmlns:xlink="http://www.w3.org/1999/xlink" x="0px" y="0px" viewBox="0 0 256 256" enable-background="new 0 0 256 256" xml:space="preserve">
<metadata> Svg Vector Icons : http://www.onlinewebfonts.com/icon </metadata>
<g><g><g><path fill="#000000" d="M206.5,9.8c-3,1-5.5,2.4-7.3,4.3c-1,1-25.6,43.3-56.9,97.4c-30.3,52.6-55.4,96-55.7,96.6c-0.4,0.7,0.1,4.5,2.2,16.7c3.1,17.8,3.2,18.3,7.4,20.5c4,2.2,4.8,2,21.8-3.9l15.2-5.3l55.9-96.8c36.2-62.8,56.1-97.6,56.5-99.1c1.2-5-0.4-11.5-3.9-15.4c-1.6-1.8-21.8-13.9-25.3-15.1C214.2,9.1,209,9.1,206.5,9.8z M223.5,24.2c5.8,3.4,11.4,6.8,12.3,7.7c2.7,2.7,2.4,4.2-2.6,13c-2.3,4-4.3,7.3-4.5,7.3c-0.7,0-30.7-17.5-30.7-18c0-0.2,1.9-3.6,4.1-7.5c4.6-8,6.1-9.4,9.1-8.9C212.2,18,217.2,20.6,223.5,24.2z M208.6,51.5c8.4,4.8,15.2,8.8,15.3,8.9c0.1,0-95.1,165.2-95.5,165.6c-0.2,0.2-31.1-17.9-31.1-18.1C98,206.4,193,42.5,193.2,42.6C193.3,42.7,200.2,46.7,208.6,51.5z M107.7,224.9c5.5,3.1,10.2,5.9,10.5,6.2c0.5,0.4-1.6,1.3-8.1,3.6c-4.8,1.7-8.9,3-9.2,3c-0.3,0-1.1-3.6-2-8.7c-1.6-9.3-1.7-9.8-1.4-9.8C97.7,219.2,102.3,221.7,107.7,224.9z"/><path fill="#000000" d="M11.5,45.9c-1.5,1.5-1.9,3.2-1.2,5c1.3,3-4.5,2.8,75.9,2.8h73.4l1.4-1.4c1.8-1.8,1.8-4.1,0.1-6.1l-1.2-1.5H86.3H12.6L11.5,45.9z"/><path fill="#000000" d="M12.9,96.6c-1.7,0.7-2.8,2.4-2.8,4.3c0,1.5,0.3,2.1,1.5,3.2l1.5,1.4h58.5c63.5,0,60.4,0.1,61.6-2.6c0.9-1.9,0.7-3.4-0.8-5l-1.4-1.5l-58.6-0.1C40.2,96.3,13.4,96.4,12.9,96.6z"/><path fill="#000000" d="M11.5,149.2c-1.5,1.5-1.9,3.2-1.2,5c1.2,2.9-1.6,2.8,46.2,2.8c48.3,0,45.3,0.2,46.4-3c0.6-1.9-0.3-4.5-1.8-5.3c-0.7-0.4-14.3-0.5-44.8-0.5H12.6L11.5,149.2z"/><path fill="#000000" d="M11.5,199.7c-1.5,1.5-1.9,3.2-1.2,5c1.2,2.9-0.3,2.8,32.8,2.8h30.3l1.5-1.2c2-1.6,2.1-4.6,0.2-6.5l-1.3-1.2H43.2H12.6L11.5,199.7z"/></g></g></g>
</svg>